<!-- icon666.com - MILLIONS vector ICONS FREE --><svg version="1.1" id="Capa_1" xmlns="http://www.w3.org/2000/svg" xmlns:xlink="http://www.w3.org/1999/xlink" x="0px" y="0px" viewBox="0 0 512.001 512.001" style="enable-background:new 0 0 512.001 512.001;" xml:space="preserve"><g><g><path d="M178.99,51.978c-5.062-6.234-12.57-9.811-20.601-9.811h-50.669V15c0-8.284-6.716-15-15-15s-15,6.716-15,15v27.168H27.05 c-8.03,0-15.539,3.576-20.601,9.811c-5.061,6.235-7.017,14.318-5.365,22.177l15.153,72.122 c2.567,12.213,13.487,21.076,25.967,21.076h7.811L22.524,483.165c-0.644,7.39,1.861,14.764,6.874,20.231 c5.012,5.468,12.141,8.604,19.559,8.604h87.523c7.418,0,14.547-3.136,19.559-8.604c5.013-5.468,7.518-12.842,6.874-20.231 l-27.491-315.812h7.811c12.479,0,23.398-8.863,25.967-21.077l15.153-72.121C186.006,66.297,184.05,58.214,178.99,51.978z M52.74,481.999l5.262-60.444h69.435l5.261,60.444H52.74z M118.424,318.005H67.015l13.114-150.65h25.181v0L118.424,318.005z M121.035,348.005l3.791,43.549H60.613l3.791-43.549H121.035z M140.421,137.354H45.019L31.321,72.169h122.796L140.421,137.354z"></path></g></g><g><g><path d="M487.823,205.649H187.524c-13.05,0-23.667,10.616-23.667,23.667v22.129c0,12.024,9.016,21.977,20.642,23.468v209.886 c0,14.999,12.202,27.202,27.201,27.202h251.948c14.998,0,27.201-12.202,27.201-27.202V274.912 c11.625-1.491,20.642-11.443,20.642-23.468v-22.129C511.491,216.266,500.874,205.649,487.823,205.649z M377.851,481.999h-80.353 v-34.022c0-1.941,1.579-3.521,3.52-3.521h73.313c1.94,0,3.52,1.579,3.52,3.521V481.999z M460.848,481.999H407.85v-34.022 c0-18.483-15.037-33.522-33.521-33.522h-73.313c-18.482,0-33.521,15.037-33.521,33.522v34.022h-52.998V275.112h246.349V481.999z M481.49,245.112c-0.006,0-5.635-0.001-5.642-0.001c-0.007,0-0.013,0.001-0.019,0.001H199.48c0.006,0,0.013-0.001,0.019-0.001 c0.006,0-4.963,0.001-5.58,0.001h-0.061v-9.462H481.49V245.112z"></path></g></g><g><g><path d="M269.318,300.146c-8.284,0-15,6.716-15,15v28.641c0,8.284,6.716,15,15,15s15-6.716,15-15v-28.641 C284.318,306.862,277.603,300.146,269.318,300.146z"></path></g></g><g><g><path d="M337.674,300.146c-8.284,0-15,6.716-15,15v28.641c0,8.284,6.716,15,15,15s15-6.716,15-15v-28.641 C352.674,306.862,345.958,300.146,337.674,300.146z"></path></g></g><g><g><path d="M407.384,300.146c-8.284,0-15,6.716-15,15v28.641c0,8.284,6.716,15,15,15s15-6.716,15-15v-28.641 C422.384,306.862,415.668,300.146,407.384,300.146z"></path></g></g></svg>