<!-- icon666.com - MILLIONS vector ICONS FREE -->
<svg version="1.1" id="Capa_1" xmlns="http://www.w3.org/2000/svg" xmlns:xlink="http://www.w3.org/1999/xlink" x="0px" y="0px" viewBox="0 0 485.309 485.309" style="enable-background:new 0 0 485.309 485.309;" xml:space="preserve"><g>
<path fill='currentColor' stroke='currentColor' d="M449.808,326.555c2.856-2.375,4.51-5.896,4.51-9.613V294.07c0-4.092-2.003-7.924-5.363-10.262l-156.148-108.6l3.441-98.357 c0.01-0.286,0.01-0.571,0-0.857c-1.119-33.28-13.652-51.734-23.969-61.354C259.86,3.06,246.561,0,241.263,0 c-6.02,0-19.205,4.27-30.855,16.033c-9.911,10.007-21.661,28.626-21.354,60.503c0.001,0.106,0.003,0.211,0.007,0.317l3.442,98.357 L36.354,283.811c-3.359,2.336-5.363,6.17-5.363,10.262v22.871c0,3.715,1.653,7.237,4.51,9.612s6.623,3.356,10.275,2.677 l151.132-28.103l3.465,99.017l-54.806,38.117c-3.36,2.336-5.363,6.17-5.363,10.262v10.33c0,6.902,5.596,12.5,12.5,12.5h59.314 c7.336,8.443,17.817,13.531,29.211,13.928c0.483,0.018,0.966,0.025,1.445,0.025c11.809,0,22.997-5.207,30.65-13.955h59.279 c6.903,0,12.5-5.598,12.5-12.5v-10.33c0-4.092-2.003-7.926-5.363-10.262l-54.806-38.117l3.465-99.016l151.132,28.104 C443.184,329.91,446.95,328.93,449.808,326.555z M429.317,301.904L278.7,273.896c-3.577-0.664-7.268,0.262-10.105,2.539 c-2.84,2.276-4.545,5.678-4.672,9.314l-4.209,120.33c-0.149,4.246,1.867,8.275,5.354,10.699l42.524,29.576h-40.596 c-4.436,0-8.539,2.35-10.783,6.176c-2.812,4.799-8,7.779-13.539,7.779c-0.188,0-0.378-0.004-0.57-0.01 c-5.361-0.189-10.21-3.1-12.97-7.787c-2.247-3.816-6.344-6.158-10.771-6.158h-40.646l42.524-29.576 c3.487-2.424,5.504-6.455,5.355-10.699l-4.21-120.33c-0.127-3.637-1.833-7.038-4.671-9.314c-2.839-2.277-6.529-3.203-10.106-2.539 L55.991,301.904v-1.301l156.38-108.761c3.487-2.425,5.503-6.455,5.355-10.699l-3.674-105.003 c-0.33-40.461,23.128-49.671,27.456-51.01c4.549,1.068,28.156,8.695,29.739,51.286l-3.664,104.728 c-0.148,4.245,1.867,8.274,5.354,10.699l156.38,108.762V301.904L429.317,301.904z">
</path></g></svg>