<!-- icon666.com - MILLIONS vector ICONS FREE --><svg clip-rule="evenodd" fill-rule="evenodd" stroke-linejoin="round" stroke-miterlimit="2" viewBox="0 0 16 16" xmlns="http://www.w3.org/2000/svg"><g id="Icon"><path d="m14 10.75h-10c-.414 0-.75.336-.75.75s.336.75.75.75h10c.414 0 .75-.336.75-.75s-.336-.75-.75-.75z"/><path d="m2 5.25h10c.414 0 .75-.336.75-.75s-.336-.75-.75-.75h-10c-.414 0-.75.336-.75.75s.336.75.75.75z"/><path d="m10.97 9.53 1.969 1.97s-1.969 1.97-1.969 1.97c-.293.292-.293.768 0 1.06.292.293.768.293 1.06 0l2.5-2.5c.293-.293.293-.767 0-1.06l-2.5-2.5c-.292-.293-.768-.293-1.06 0-.293.292-.293.768 0 1.06z"/><path d="m5.03 6.47-1.969-1.97s1.969-1.97 1.969-1.97c.293-.292.293-.768 0-1.06-.292-.293-.768-.293-1.06 0l-2.5 2.5c-.293.293-.293.767 0 1.06l2.5 2.5c.292.293.768.293 1.06 0 .293-.292.293-.768 0-1.06z"/></g></svg>