<!DOCTYPE svg PUBLIC "-//W3C//DTD SVG 1.1//EN" "http://www.w3.org/Graphics/SVG/1.1/DTD/svg11.dtd">
<!-- Uploaded to: SVG Repo, www.svgrepo.com, Transformed by: SVG Repo Mixer Tools -->
<svg fill="#ffffff" width="800px" height="800px" viewBox="-25.6 -25.6 307.20 307.20" id="Flat" xmlns="http://www.w3.org/2000/svg" stroke="#ffffff" stroke-width="0.00256">
<g id="SVGRepo_bgCarrier" stroke-width="0" transform="translate(0,0), scale(1)">
<rect x="-25.6" y="-25.6" width="307.20" height="307.20" rx="153.6" fill="#f3ec2b" strokewidth="0"/>
</g>
<g id="SVGRepo_tracerCarrier" stroke-linecap="round" stroke-linejoin="round"/>
<g id="SVGRepo_iconCarrier"> <path d="M240,124H223.82715l19.29-47.4834a11.99965,11.99965,0,0,0-22.23438-9.0332L197.92285,124h-35.8457l-22.96-56.5166a11.99944,11.99944,0,0,0-22.23438,0L93.92285,124H58.07715l-22.96-56.5166a11.99965,11.99965,0,1,0-22.23438,9.0332L32.17285,124H16a12,12,0,0,0,0,24H41.92285l22.96,56.5166a11.99944,11.99944,0,0,0,22.23438,0L110.07715,148h35.8457l22.96,56.5166a11.99944,11.99944,0,0,0,22.23438,0L214.07715,148H240a12,12,0,0,0,0-24ZM76,168.11719,67.82715,148h16.3457ZM119.82715,124,128,103.88281,136.17285,124ZM180,168.11719,171.82715,148h16.3457Z"/> </g>
</svg>