<!DOCTYPE svg PUBLIC "-//W3C//DTD SVG 1.1//EN" "http://www.w3.org/Graphics/SVG/1.1/DTD/svg11.dtd">
<!-- Uploaded to: SVG Repo, www.svgrepo.com, Transformed by: SVG Repo Mixer Tools -->
<svg fill="#ffffff" width="800px" height="800px" viewBox="-25.6 -25.6 307.20 307.20" id="Flat" xmlns="http://www.w3.org/2000/svg" stroke="#ffffff">
<g id="SVGRepo_bgCarrier" stroke-width="0">
<rect x="-25.6" y="-25.6" width="307.20" height="307.20" rx="153.6" fill="#f3ec2b" strokewidth="0"/>
</g>
<g id="SVGRepo_tracerCarrier" stroke-linecap="round" stroke-linejoin="round"/>
<g id="SVGRepo_iconCarrier"> <path d="M209.28711,55.59863,153.32227,124H176a12,12,0,0,1,0,24H140v16h36a12,12,0,0,1,0,24H140v28a12,12,0,0,1-24,0V188H80a12,12,0,0,1,0-24h36V148H80a12,12,0,0,1,0-24h22.67773L46.71289,55.59863A11.99957,11.99957,0,1,1,65.28711,40.40137L128,117.0498l62.71289-76.64843a11.99957,11.99957,0,1,1,18.57422,15.19726Z"/> </g>
</svg>