<svg xmlns="http://www.w3.org/2000/svg" xmlns:xlink="http://www.w3.org/1999/xlink" fill="#000000" height="800px" width="800px" version="1.1" id="Layer_1" viewBox="0 0 512.003 512.003" xml:space="preserve">
	<g>
		<path d="M510.338,141.484c-2.918-7.697-9.353-13.517-17.289-15.65c-8.201-2.202-81.596-20.617-133.564,9.412    c-12.698,7.339-36.19,23.066-71.663,47.974L80.701,127.669c-6.554-1.758-13.534-0.836-19.405,2.56l-22.144,12.8    c-8.047,4.651-12.945,13.312-12.783,22.622c0.162,9.301,5.359,17.792,13.568,22.161l138.257,73.574    c-23.356,16.41-46.106,32.068-59.904,41.515l-62.037-36.523c-7.936-4.676-17.775-4.71-25.754-0.102l-17.715,10.24    c-7.262,4.198-12.006,11.699-12.698,20.062c-0.691,8.371,2.765,16.538,9.242,21.879l84.369,69.478    c4.983,4.104,11.332,6.17,17.775,5.786l57.079-3.43c3.959-0.239,7.817-1.399,11.255-3.379l243.61-140.8    c48.956-28.297,82.935-79.275,84.352-81.434C512.3,157.809,513.256,149.181,510.338,141.484z M410.626,223.933"/>
	</g>
</svg>