<svg xmlns="http://www.w3.org/2000/svg" xmlns:xlink="http://www.w3.org/1999/xlink" version="1.1" x="0px" y="0px" viewBox="0 0 256 256" enable-background="new 0 0 256 256" xml:space="preserve">
<metadata> Svg Vector Icons : http://www.onlinewebfonts.com/icon </metadata>
<g><g><path fill="#000000" d="M226.3,128.2c-10.9,0-19.7,8.8-19.7,19.7v59H49.3V49.5h59c10.9,0,19.7-8.8,19.7-19.7c0-10.9-8.8-19.7-19.7-19.7H29.7C18.8,10.2,10,19,10,29.8v196.7c0,10.9,8.8,19.7,19.7,19.7h196.7c10.9,0,19.7-8.8,19.7-19.7v-78.7C246,137,237.2,128.2,226.3,128.2z M94.3,161.2c8,8,21,8,29.1,0L239.6,44.9c8-8,8-21,0-29.1c-8-8-21-8-29.1,0L94.3,132.1C86.3,140.1,86.3,153.1,94.3,161.2z"/></g></g>
</svg>