<svg fill="#000000" height="200px" width="200px" version="1.1" id="Layer_1" xmlns="http://www.w3.org/2000/svg" xmlns:xlink="http://www.w3.org/1999/xlink" viewBox="0 0 512.00 512.00" xml:space="preserve" transform="rotate(0)matrix(-1, 0, 0, 1, 0, 0)"><g id="SVGRepo_bgCarrier" stroke-width="0"></g><g id="SVGRepo_tracerCarrier" stroke-linecap="round" stroke-linejoin="round" stroke="#CCCCCC" stroke-width="10.24002"></g><g id="SVGRepo_iconCarrier"> <g> <g> <path d="M283.097,0C156.88,0,54.194,102.686,54.194,228.904c0,37.27,8.959,72.485,24.827,103.613l-58.247,58.247 c-27.699,27.697-27.699,72.766,0,100.463C34.622,505.077,52.814,512,71.005,512c18.192,0,36.385-6.924,50.232-20.773 l58.246-58.247c31.131,15.869,66.346,24.827,103.614,24.827c126.217,0,228.903-102.686,228.903-228.903S409.315,0,283.097,0z M87.751,457.739c-9.235,9.235-24.256,9.232-33.489,0c-9.234-9.233-9.234-24.256,0-33.488l51.18-51.178 c9.983,12.279,21.209,23.504,33.488,33.488L87.751,457.739z M283.097,410.448c-100.103,0-181.544-81.441-181.544-181.544 S182.994,47.36,283.097,47.36S464.641,128.8,464.641,228.904S383.201,410.448,283.097,410.448z"></path> </g> </g> </g></svg>