<!DOCTYPE svg PUBLIC "-//W3C//DTD SVG 1.1//EN" "http://www.w3.org/Graphics/SVG/1.1/DTD/svg11.dtd">
<!-- Uploaded to: SVG Repo, www.svgrepo.com, Transformed by: SVG Repo Mixer Tools -->
<svg width="800px" height="800px" viewBox="0 0 24 24" fill="none" xmlns="http://www.w3.org/2000/svg">
<g id="SVGRepo_bgCarrier" stroke-width="0"/>
<g id="SVGRepo_tracerCarrier" stroke-linecap="round" stroke-linejoin="round"/>
<g id="SVGRepo_iconCarrier"> <path d="M11.4211 5.34687L11.888 4.46257C11.6383 4.33071 11.3444 4.31059 11.0791 4.40718L11.4211 5.34687ZM8.60202 6.37293L8.26 5.43324C7.96664 5.54001 7.73998 5.77766 7.6472 6.07574C7.55442 6.37382 7.60617 6.69813 7.78711 6.95253L8.60202 6.37293ZM15.3731 7.43354L14.9062 8.31784C15.1752 8.45989 15.4943 8.47175 15.7731 8.35007L15.3731 7.43354ZM16.5291 6.92906L16.1292 6.01253L16.5291 6.92906ZM7.70723 14.1478L7.0197 14.874C7.29475 15.1344 7.69332 15.2171 8.04925 15.0875L7.70723 14.1478ZM6.8954 13.3792L7.58293 12.653C7.30788 12.3926 6.90931 12.31 6.55338 12.4395L6.8954 13.3792ZM6.89538 13.3792L6.20785 14.1054C6.48289 14.3658 6.88147 14.4484 7.2374 14.3189L6.89538 13.3792ZM5.27163 11.8418L5.95917 11.1157L5.95917 11.1156L5.27163 11.8418ZM3.64791 10.3044L3.30589 9.36474C2.98021 9.48328 2.73913 9.76199 2.66875 10.1013C2.59836 10.4407 2.70871 10.7923 2.96037 11.0306L3.64791 10.3044ZM6.46699 9.27837L7.15452 8.55222C6.87947 8.2918 6.4809 8.20913 6.12497 8.33868L6.46699 9.27837ZM7.9431 10.676L7.25556 11.4021C7.54701 11.6781 7.97521 11.753 8.34307 11.5925L7.9431 10.676ZM10.7815 9.4373L11.1815 10.3538C11.4576 10.2333 11.6647 9.99482 11.7452 9.70455C11.8257 9.41427 11.771 9.10317 11.5964 8.8577L10.7815 9.4373ZM11.0791 4.40718L8.26 5.43324L8.94404 7.31262L11.7631 6.28656L11.0791 4.40718ZM15.84 6.54924L11.888 4.46257L10.9542 6.23117L14.9062 8.31784L15.84 6.54924ZM16.1292 6.01253L14.9731 6.51701L15.7731 8.35007L16.9291 7.84559L16.1292 6.01253ZM22.1864 8.61017C21.2944 6.15936 18.5195 4.96937 16.1292 6.01253L16.9291 7.84559C18.2621 7.26385 19.8096 7.92747 20.3071 9.29421L22.1864 8.61017ZM21.4384 10.2143C22.088 9.97787 22.4228 9.25969 22.1864 8.61017L20.3071 9.29421C20.1657 8.90578 20.366 8.47628 20.7544 8.3349L21.4384 10.2143ZM8.04925 15.0875L21.4384 10.2143L20.7544 8.3349L7.36521 13.2082L8.04925 15.0875ZM6.20787 14.1054L7.0197 14.874L8.39476 13.4217L7.58293 12.653L6.20787 14.1054ZM6.55338 12.4395L6.55336 12.4395L7.2374 14.3189L7.23742 14.3189L6.55338 12.4395ZM7.58292 12.6531L5.95917 11.1157L4.5841 12.568L6.20785 14.1054L7.58292 12.6531ZM5.95917 11.1156L4.33544 9.57828L2.96037 11.0306L4.5841 12.568L5.95917 11.1156ZM3.98993 11.2441L6.80901 10.2181L6.12497 8.33868L3.30589 9.36474L3.98993 11.2441ZM5.77945 10.0045L7.25556 11.4021L8.63063 9.94983L7.15452 8.55222L5.77945 10.0045ZM10.3816 8.52077L7.54313 9.75945L8.34307 11.5925L11.1815 10.3538L10.3816 8.52077ZM7.78711 6.95253L9.96663 10.0169L11.5964 8.8577L9.41692 5.79333L7.78711 6.95253Z" fill="#FE784A"/> <path d="M4 19L20 19" stroke="#FE784A" stroke-width="0.00024000000000000003" stroke-linecap="round" stroke-linejoin="round"/> </g>
</svg>