<!DOCTYPE svg PUBLIC "-//W3C//DTD SVG 1.1//EN" "http://www.w3.org/Graphics/SVG/1.1/DTD/svg11.dtd">
<!-- Uploaded to: SVG Repo, www.svgrepo.com, Transformed by: SVG Repo Mixer Tools -->
<svg width="800px" height="800px" viewBox="0 0 24.00 24.00" fill="none" xmlns="http://www.w3.org/2000/svg" stroke="">
<g id="SVGRepo_bgCarrier" stroke-width="0"/>
<g id="SVGRepo_tracerCarrier" stroke-linecap="round" stroke-linejoin="round"/>
<g id="SVGRepo_iconCarrier"> <path d="M13.8156 5.6889L14.7417 5.31161C14.6352 5.05008 14.423 4.84579 14.1576 4.7492L13.8156 5.6889ZM10.9965 4.66284L11.3386 3.72314C11.0452 3.61637 10.7188 3.65272 10.4561 3.82143C10.1935 3.99014 10.0247 4.27183 9.99974 4.58302L10.9965 4.66284ZM15.5018 9.82769L14.5757 10.205C14.6904 10.4867 14.9272 10.7009 15.219 10.7869L15.5018 9.82769ZM16.7116 10.1843L16.4289 11.1435L16.7116 10.1843ZM18.7027 14.9169L18.3606 15.8566L18.7027 14.9169ZM5.31348 10.0436L4.32004 10.1579C4.36335 10.5342 4.61553 10.8538 4.97146 10.9833L5.31348 10.0436ZM5.18566 8.93295L6.1791 8.81862C6.1358 8.44233 5.88361 8.12281 5.52768 7.99326L5.18566 8.93295ZM5.18565 8.93295L4.1922 9.04727C4.23551 9.42356 4.48769 9.74309 4.84363 9.87264L5.18565 8.93295ZM4.93 6.71151L5.92345 6.59718L5.92345 6.59718L4.93 6.71151ZM4.67436 4.4901L5.01638 3.55041C4.6907 3.43187 4.32687 3.49042 4.05482 3.70514C3.78277 3.91985 3.64129 4.26013 3.68092 4.60443L4.67436 4.4901ZM7.49344 5.51616L8.48688 5.40184C8.44358 5.02555 8.19139 4.70602 7.83546 4.57647L7.49344 5.51616ZM7.72584 7.53562L6.73239 7.64995C6.77828 8.04868 7.05812 8.38134 7.4431 8.49482L7.72584 7.53562ZM10.6964 8.41124L10.4137 9.37044C10.7026 9.45561 11.0146 9.40599 11.2628 9.23538C11.5111 9.06476 11.6692 8.79133 11.6932 8.49106L10.6964 8.41124ZM14.1576 4.7492L11.3386 3.72314L10.6545 5.60253L13.4736 6.62859L14.1576 4.7492ZM16.4279 9.4504L14.7417 5.31161L12.8895 6.06619L14.5757 10.205L16.4279 9.4504ZM16.9943 9.22511L15.7845 8.86849L15.219 10.7869L16.4289 11.1435L16.9943 9.22511ZM19.9647 15.1086C20.8568 12.6578 19.496 9.96251 16.9943 9.22511L16.4289 11.1435C17.824 11.5547 18.5828 13.0578 18.0854 14.4245L19.9647 15.1086ZM18.3606 15.8566C19.0102 16.093 19.7283 15.7581 19.9647 15.1086L18.0854 14.4245C18.2267 14.0361 18.6562 13.8358 19.0447 13.9772L18.3606 15.8566ZM4.97146 10.9833L18.3606 15.8566L19.0447 13.9772L5.6555 9.10392L4.97146 10.9833ZM4.19222 9.04729L4.32004 10.1579L6.30693 9.92928L6.1791 8.81862L4.19222 9.04729ZM5.52768 7.99326L5.52767 7.99326L4.84363 9.87264L4.84364 9.87265L5.52768 7.99326ZM6.17909 8.81862L5.92345 6.59718L3.93656 6.82583L4.1922 9.04727L6.17909 8.81862ZM5.92345 6.59718L5.6678 4.37577L3.68092 4.60443L3.93656 6.82583L5.92345 6.59718ZM4.33234 5.4298L7.15142 6.45586L7.83546 4.57647L5.01638 3.55041L4.33234 5.4298ZM6.49999 5.63049L6.73239 7.64995L8.71928 7.42129L8.48688 5.40184L6.49999 5.63049ZM10.9792 7.45205L8.00858 6.57642L7.4431 8.49482L10.4137 9.37044L10.9792 7.45205ZM9.99974 4.58302L9.69961 8.33143L11.6932 8.49106L11.9934 4.74265L9.99974 4.58302Z" fill="#FE784A"/> <path d="M4 19L20 19" stroke="#FE784A" stroke-width="0.00024000000000000003" stroke-linecap="round" stroke-linejoin="round"/> </g>
</svg>