<!-- icon666.com - MILLIONS vector ICONS FREE --><svg id="Capa_1" enable-background="new 0 0 512.002 512.002" viewBox="0 0 512.002 512.002" xmlns="http://www.w3.org/2000/svg"><g><path d="m426.001 0h-340c-27.57 0-50 22.43-50 50v412.002c0 27.57 22.43 50 50 50h340c27.57 0 50-22.43 50-50v-412.002c0-27.57-22.43-50-50-50zm30 462.002c0 16.542-13.458 30-30 30h-340c-16.542 0-30-13.458-30-30v-412.002c0-16.542 13.458-30 30-30h340c16.542 0 30 13.458 30 30z"></path><path d="m421.001 45h-105c-5.522 0-10 4.478-10 10 0 5.514-4.486 10-10 10h-80c-5.514 0-10-4.486-10-10 0-5.522-4.478-10-10-10h-105c-5.522 0-10 4.478-10 10v402.002c0 5.522 4.478 10 10 10h330c5.522 0 10-4.478 10-10v-402.002c0-5.522-4.478-10-10-10zm-10 402.002h-310v-382.002h86.714c4.127 11.641 15.248 20 28.286 20h80c13.038 0 24.159-8.359 28.286-20h86.714z"></path><path d="m308.413 168.424-22.657 24.036-64.774-20.266c-3.55-1.109-7.426-.158-10.058 2.473l-25.278 25.279c-2.172 2.173-3.226 5.223-2.856 8.272s2.12 5.761 4.747 7.353l48.683 29.483-29.611 31.564-28.816-7.672c-3.449-.918-7.122.07-9.645 2.592l-25.848 25.848c-2.255 2.255-3.299 5.45-2.811 8.602.487 3.151 2.449 5.881 5.28 7.349l45.386 23.522 23.522 45.385c1.468 2.831 4.197 4.793 7.349 5.28.511.079 1.022.118 1.531.118 2.631 0 5.181-1.039 7.07-2.929l25.848-25.847c2.522-2.522 3.51-6.197 2.592-9.645l-7.672-28.815 31.564-29.611 29.483 48.682c1.592 2.628 4.303 4.378 7.353 4.747 3.05.375 6.1-.686 8.272-2.856l25.278-25.279c2.631-2.632 3.584-6.506 2.473-10.057l-20.265-64.774 24.037-22.657c8.631-8.138 13.878-19.445 14.037-30.249.135-9.148-3.284-17.475-9.888-24.078-6.619-6.617-14.98-10.062-24.099-9.91-10.776.158-22.077 5.414-30.227 14.06zm30.523 5.937c3.748-.026 6.88 1.271 9.662 4.055 2.769 2.768 4.087 5.922 4.032 9.641-.078 5.345-3.124 11.621-7.759 15.991l-28.589 26.948c-2.785 2.625-3.827 6.609-2.685 10.263l20.325 64.968-11.979 11.98-29.271-48.33c-1.562-2.58-4.206-4.316-7.194-4.727-2.989-.411-6.003.552-8.201 2.614l-44.926 42.146c-2.685 2.519-3.769 6.309-2.821 9.866l7.727 29.022-12.11 12.11-18.694-36.071c-.95-1.833-2.444-3.327-4.277-4.277l-36.071-18.694 12.11-12.11 29.023 7.727c3.561.947 7.348-.138 9.866-2.821l42.146-44.926c2.063-2.199 3.024-5.213 2.614-8.201s-2.147-5.632-4.727-7.194l-48.331-29.271 11.98-11.98 64.969 20.326c3.655 1.145 7.639.101 10.263-2.685l26.948-28.588c4.383-4.649 10.651-7.704 15.97-7.782z"></path><path d="m381.001 407.002h-105c-5.522 0-10 4.478-10 10s4.478 10 10 10h105c5.522 0 10-4.478 10-10s-4.478-10-10-10z"></path><path d="m131.002 125.001h104.999c5.522 0 10-4.478 10-10s-4.478-10-10-10h-104.999c-5.522 0-10 4.478-10 10s4.477 10 10 10z"></path><path d="m318.501 377.002c0 5.522 4.478 10 10 10h52.5c5.522 0 10-4.478 10-10s-4.478-10-10-10h-52.5c-5.522 0-10 4.477-10 10z"></path><path d="m193.502 155.001c0-5.522-4.478-10-10-10h-52.5c-5.522 0-10 4.478-10 10s4.478 10 10 10h52.5c5.522 0 10-4.478 10-10z"></path></g></svg>