<!-- icon666.com - MILLIONS vector ICONS FREE --><svg id="Layer_1" enable-background="new 0 0 26 26" viewBox="0 0 26 26" xmlns="http://www.w3.org/2000/svg"><g id="_x33_68"><path d="m6.46875 25h13.0625c3.015625 0 5.46875-2.453125 5.46875-5.46875v-13.0625c0-3.015625-2.453125-5.46875-5.46875-5.46875h-13.0625c-3.015625 0-5.46875 2.453125-5.46875 5.46875v13.0625c0 3.015625 2.453125 5.46875 5.46875 5.46875zm-3.46875-18.53125c0-1.9125977 1.5556641-3.46875 3.46875-3.46875h13.0625c1.9130859 0 3.46875 1.5561523 3.46875 3.46875v13.0625c0 1.9125977-1.5556641 3.46875-3.46875 3.46875h-13.0625c-1.9130859 0-3.46875-1.5561523-3.46875-3.46875z"></path><path d="m7.6435547 20.2602539h10.7138672c.6484375 0 1.2519531-.2910156 1.6572266-.7978516.4082031-.5107422.5595703-1.1699219.4150391-1.8085938-.5570068-2.4550781-2.2359619-4.3848267-4.4279785-5.3165283.609375-.7011719.9914551-1.6051025.9914551-2.6048584 0-2.2016602-1.7910156-3.9926758-3.9931641-3.9926758s-3.9931642 1.7910157-3.9931642 3.9926759c0 .9997559.3820801 1.9036865.9914551 2.6048584-2.1920166.9317017-3.8709717 2.8616333-4.4279785 5.3170166-.1445313.6381836.0068359 1.296875.4150391 1.8076172.4052734.5073242 1.0097656.7983398 1.6582031.7983398zm3.3632812-10.527832c0-1.0986328.8945313-1.9926758 1.9931641-1.9926758s1.9931641.894043 1.9931641 1.9926758-.8945313 1.9926758-1.9931641 1.9926758-1.9931641-.894043-1.9931641-1.9926758zm1.9931641 3.9926758c2.6416016 0 4.8945313 1.7973633 5.4785156 4.3706055.0126953.0546875-.0078125.0942383-.0263672.1181641-.0371094.0463867-.0800781.0463867-.0947266.0463867h-10.7138671c-.0146484 0-.0585938 0-.0957031-.0463867-.0185547-.0239258-.0390625-.0634766-.0263672-.1176758.5839844-2.5737306 2.836914-4.3710938 5.4785156-4.3710938z"></path></g></svg>